<svg width="260" height="225" viewBox="0 0 260 225" fill="none" xmlns="http://www.w3.org/2000/svg">
<path id="logo-transparent 1 (Traced)" fill-rule="evenodd" clip-rule="evenodd" d="M124.048 1.196C116.968 2.051 114.128 2.642 104.548 5.257C100.262 6.426 99.5236 6.751 88.0476 12.504C72.4116 20.342 54.7336 35.559 44.3036 50.158C40.0276 56.144 32.7566 69.557 29.4836 77.5C24.0526 90.676 22.8956 109.524 26.9766 118.334C29.8066 124.445 35.3026 129.97 41.6246 133.061C47.5476 135.958 59.7086 136.88 66.8716 134.975C74.2306 133.019 83.9906 127.181 90.7976 120.666C97.2386 114.5 98.9406 114.749 94.5476 121.215C93.1726 123.238 92.0476 125.103 92.0476 125.359C92.0476 125.615 89.1086 130.251 85.5156 135.662C74.3276 152.513 65.5846 161.579 55.2936 167C51.5116 168.992 48.7516 169.572 41.7016 169.853C28.8176 170.367 19.7856 167.272 12.9736 160.007C9.49463 156.297 6.04763 150.31 6.04763 147.978C6.04763 146.929 5.25963 145.665 4.29763 145.17C-3.04537 141.394 -0.396372 156.395 7.83963 165.231C18.7716 176.959 38.5376 181.033 58.2246 175.617C68.6296 172.754 75.8506 169.222 84.4246 162.801C93.2466 156.194 106.029 140.794 114.591 126.455C115.498 124.937 115.956 124.879 118.091 126.018C119.442 126.738 121.097 128.041 121.768 128.913C123.396 131.031 127.548 142.274 129.001 148.5C137.625 185.469 144.957 201.379 158.82 213.213C165.152 218.617 173.227 222.706 180.168 224.023C186.201 225.167 208.472 225.223 215.218 224.111C222.071 222.981 230.368 217.608 240.092 208C254.676 193.591 263.36 177.997 256.798 178.002C255.192 178.003 253.71 179.363 251.623 182.752C246.664 190.8 236.996 202.243 230.501 207.75C227.096 210.637 224.017 213 223.659 213C223.301 213 221.33 214.037 219.278 215.305C211.759 219.953 203.232 221.071 193.548 218.681C182.493 215.953 173.754 209.128 165.821 197.024C161.729 190.781 155.048 178.003 155.048 176.419C155.048 176.177 154.179 174.071 153.117 171.739C152.054 169.408 149.1 162.325 146.551 156C140.905 141.989 136.102 132.979 131.059 126.941L127.25 122.381L134.982 120.756C144.639 118.726 159.365 112.441 167.416 106.915C183.654 95.768 195.204 80.768 201.615 62.5C203.879 56.049 203.503 39.292 200.941 32.444C198.533 26.006 192.379 17.999 186.248 13.322C181.719 9.868 181.835 9.48 188.048 7.273C195.17 4.744 203.724 5.95 206.766 9.913C208.719 12.457 208.317 19.389 206.048 22.273C203.064 26.067 203.392 29.004 206.798 28.985C210.332 28.965 211.235 28.328 214.421 23.61C221.9 12.537 211.759 0 195.323 0C192.351 0 187.188 1.096 182.894 2.639C174.343 5.712 172.613 5.815 164.548 3.736C150.734 0.175 138.732 -0.577001 124.048 1.196ZM157.574 9.228C161.135 9.903 164.048 10.819 164.048 11.263C164.048 11.706 161.011 15.107 157.298 18.819C153.585 22.532 147.964 29.003 144.806 33.199C137.736 42.595 134.093 48.397 123.548 67.059L120.548 72.368L120.048 63.434C119.318 50.382 115.594 44.38 104.814 38.881C99.1306 35.981 87.3556 35.629 85.6786 38.309C84.0706 40.879 87.2466 43 92.7036 43C98.1076 43 105.845 45.557 108.893 48.351C113.508 52.581 114.329 55.581 113.841 66.438C113.429 75.612 113.036 77.254 109.381 85.042C101.218 102.439 87.2086 117.792 73.0186 124.894C63.0876 129.865 58.6966 130.621 51.6536 128.574C45.5906 126.811 41.0836 122.966 38.3176 117.193C35.9506 112.254 35.9186 91.156 38.2646 82.909C46.2066 54.995 68.2146 28.65 93.0476 17.333C100.616 13.884 109.805 10.754 115.012 9.852C118.017 9.331 120.68 8.701 120.929 8.453C121.927 7.454 151.525 8.081 157.574 9.228ZM179.388 20.955C186.518 28.847 187.55 32.023 187.527 46C187.508 57.475 187.269 59.074 184.616 65.5C181.277 73.589 178.596 77.96 171.433 87C163.052 97.575 154.995 103.869 142.558 109.558C135.49 112.791 122.288 116.573 121.349 115.635C121.07 115.356 123.537 109.586 126.831 102.814C130.124 96.041 133.83 88.25 135.066 85.5C136.302 82.75 138.603 77.676 140.18 74.225C141.758 70.774 143.048 67.707 143.048 67.409C143.048 67.112 145.899 61.161 149.383 54.185C160.45 32.027 170.419 17 174.052 17C175.022 17 177.423 18.78 179.388 20.955Z" fill="#FFD700"/>
</svg>
