<svg width="120" height="100" viewBox="0 0 120 100" fill="none" xmlns="http://www.w3.org/2000/svg">
<g id="trig" clip-path="url(#clip0_2_3)">
<g id="lightGroup">
<path id="light1" opacity="0.7" d="M46 48.268C47.3333 49.0378 47.3333 50.9623 46 51.7321L11.5 71.6506C10.1667 72.4204 8.5 71.4582 8.5 69.9186V30.0814C8.5 28.5418 10.1667 27.5796 11.5 28.3494L46 48.268Z" fill="#43C4ED"/>
<g id="darkGroup">
<path id="dark2" opacity="0.7" d="M46 48.268C47.3333 49.0378 47.3333 50.9623 46 51.7321L11.5 71.6506C10.1667 72.4204 8.5 71.4582 8.5 69.9186V30.0814C8.5 28.5418 10.1667 27.5796 11.5 28.3494L46 48.268Z" fill="#635BFF"/>
<path id="dark1" opacity="0.7" d="M62 48.268C63.3333 49.0378 63.3333 50.9623 62 51.7321L27.5 71.6506C26.1667 72.4204 24.5 71.4582 24.5 69.9186V30.0814C24.5 28.5418 26.1667 27.5796 27.5 28.3494L62 48.268Z" fill="#635BFF"/>
</g>
</g>
</g>
<defs>
<clipPath id="clip0_2_3">
<rect width="120" height="100" fill="white"/>
</clipPath>
</defs>
</svg>
